<?xml version="1.0" standalone="no"?>
<!DOCTYPE svg PUBLIC "-//W3C//DTD SVG 20010904//EN"
 "http://www.w3.org/TR/2001/REC-SVG-20010904/DTD/svg10.dtd">
<svg version="1.0" xmlns="http://www.w3.org/2000/svg"
 width="500.000000pt" height="500.000000pt" viewBox="0 0 500.000000 500.000000"
 preserveAspectRatio="xMidYMid meet">

<g transform="translate(0.000000,500.000000) scale(0.100000,-0.100000)"
fill="#000000" stroke="none">
<path d="M655 3235 c-128 -28 -224 -96 -272 -193 -28 -57 -28 -57 -33 -317 -4
-216 -8 -265 -22 -290 -36 -66 -94 -99 -196 -111 l-63 -7 3 -76 3 -76 60 -6
c87 -8 148 -38 182 -90 l28 -42 5 -262 5 -262 35 -69 c57 -112 171 -179 328
-191 l72 -6 0 75 0 74 -66 11 c-81 14 -136 49 -166 106 -20 39 -22 60 -27 297
-6 235 -8 258 -28 295 -11 22 -32 50 -45 62 -27 25 -125 73 -150 73 -36 0 -27
20 14 31 89 24 162 80 191 148 6 15 13 126 17 276 6 231 8 253 28 292 35 66
90 100 195 118 l37 6 0 74 0 75 -37 -1 c-21 0 -65 -7 -98 -14z"/>
<path d="M4210 3175 l0 -74 38 -6 c105 -18 163 -54 193 -119 16 -36 19 -68 19
-256 0 -232 9 -293 50 -353 29 -43 77 -76 143 -98 28 -10 53 -21 54 -26 2 -5
-19 -15 -46 -22 -80 -20 -136 -64 -168 -129 -28 -57 -28 -58 -33 -313 l-5
-256 -27 -40 c-31 -47 -91 -79 -167 -89 l-51 -7 0 -75 0 -75 73 6 c124 9 248
69 302 147 54 78 58 105 64 380 6 233 8 258 27 290 37 63 113 100 207 100 l47
0 0 79 0 78 -62 7 c-85 9 -161 47 -190 94 -22 36 -23 47 -28 297 l-5 260 -33
67 c-36 74 -87 124 -160 158 -50 24 -159 50 -209 50 l-33 0 0 -75z"/>
<path d="M1548 2558 c-359 -330 -654 -604 -656 -609 -4 -9 76 -99 88 -99 5 0
278 248 607 551 329 303 603 553 610 556 12 5 433 -372 433 -387 0 -10 -204
-200 -215 -200 -3 0 -38 28 -76 61 -61 55 -71 60 -86 48 -42 -35 -559 -511
-568 -524 -7 -11 1 -26 35 -60 24 -25 47 -45 50 -45 4 0 116 101 250 225 135
124 247 225 250 225 3 0 116 -101 253 -225 136 -124 251 -225 256 -225 10 0
91 89 91 99 -1 3 -79 76 -175 161 l-175 155 107 102 c60 56 111 102 116 103 6
0 401 -353 672 -600 l30 -28 47 53 47 52 -345 313 -345 312 77 72 c98 91 101
92 127 69 47 -40 885 -799 922 -835 l41 -38 47 54 47 55 -542 490 -541 490
-121 -111 c-67 -62 -131 -120 -142 -131 -21 -18 -23 -16 -292 227 l-271 245
-653 -601z"/>
<path d="M880 1635 l0 -45 1620 0 1620 0 0 45 0 45 -1620 0 -1620 0 0 -45z"/>
</g>
</svg>
