<?xml version="1.0" standalone="no"?>
<!DOCTYPE svg PUBLIC "-//W3C//DTD SVG 20010904//EN"
 "http://www.w3.org/TR/2001/REC-SVG-20010904/DTD/svg10.dtd">
<svg version="1.0" xmlns="http://www.w3.org/2000/svg"
 width="300.000000pt" height="300.000000pt" viewBox="0 0 300.000000 300.000000"
 preserveAspectRatio="xMidYMid meet">

<g transform="translate(0.000000,300.000000) scale(0.100000,-0.100000)"
fill="#000000" stroke="none">
<path d="M1307 2478 c-8 -13 -46 -81 -84 -153 -39 -71 -134 -245 -211 -385
-77 -140 -174 -320 -217 -400 -42 -80 -117 -217 -166 -306 -49 -88 -89 -163
-89 -167 0 -4 218 -7 485 -7 l485 0 0 120 0 120 -280 0 c-187 0 -280 3 -280
10 0 6 69 138 154 293 85 155 199 365 254 467 l100 185 100 3 101 3 34 -63
c19 -35 79 -146 135 -248 55 -102 160 -295 234 -430 74 -135 160 -293 192
-352 l57 -108 136 0 c125 0 135 1 129 17 -4 10 -65 124 -136 253 -71 129 -243
444 -382 700 l-253 465 -242 3 -242 2 -14 -22z"/>
<path d="M466 938 c-7 -13 -49 -88 -91 -168 -43 -80 -93 -173 -112 -207 l-35
-63 139 0 138 0 52 99 c29 54 59 103 66 109 10 9 298 13 1079 14 l1066 3 -62
115 -61 115 -1082 3 -1082 2 -15 -22z"/>
</g>
</svg>
